<svg width="38" height="23" viewBox="0 0 38 23" fill="none" xmlns="http://www.w3.org/2000/svg">
<path d="M24.0293 22.9368H38L27.5489 5.57165C24.9239 1.59962 18.4355 -3.77301 10.9524 5.1777C10.7731 5.35532 10.6185 5.55069 10.5 5.73492C10.6512 5.5433 10.802 5.35761 10.9524 5.1777C11.6441 4.49266 12.7054 4.07154 13.4976 5.57165L24.0293 22.9368Z" fill="url(#paint0_linear_1671_19423)"/>
<path d="M13.9707 23H0L10.4511 5.63486C13.1176 1.6 20.4382 -4.65402 27.5076 5.50479C27.5395 5.5479 27.5693 5.59112 27.597 5.63411C27.5672 5.59071 27.5374 5.5476 27.5076 5.50479C26.8763 4.65058 25.4521 3.83656 24.5024 5.63486L13.9707 23Z" fill="#007CD9"/>
<defs>
<linearGradient id="paint0_linear_1671_19423" x1="24" y1="0.26585" x2="24" y2="22.937" gradientUnits="userSpaceOnUse">
<stop stop-color="#007CD9"/>
<stop offset="1" stop-color="#007CD9" stop-opacity="0"/>
</linearGradient>
</defs>
</svg>
