<svg width="141" height="120" viewBox="0 0 141 120" fill="none" xmlns="http://www.w3.org/2000/svg">
<ellipse cx="80.822" cy="60" rx="60.1735" ry="60" fill="#FAFAFA"/>
<mask id="mask0_2291_59967" style="mask-type:alpha" maskUnits="userSpaceOnUse" x="20" y="0" width="121" height="120">
<ellipse cx="80.822" cy="60" rx="60.1735" ry="60" fill="#FAFAFA"/>
</mask>
<g mask="url(#mask0_2291_59967)">
<path d="M47.6016 86.0098C47.6016 82.6961 50.2938 80.0098 53.6148 80.0098H183.712C187.033 80.0098 189.726 82.6961 189.726 86.0098V101.438C189.726 104.752 187.033 107.438 183.712 107.438H53.6149C50.2938 107.438 47.6016 104.752 47.6016 101.438V86.0098Z" fill="white"/>
<path fill-rule="evenodd" clip-rule="evenodd" d="M183.712 80.7598H53.6148C50.7089 80.7598 48.3532 83.1103 48.3532 86.0098V101.438C48.3532 104.338 50.7089 106.688 53.6149 106.688H183.712C186.618 106.688 188.974 104.338 188.974 101.438V86.0098C188.974 83.1103 186.618 80.7598 183.712 80.7598ZM53.6148 80.0098C50.2938 80.0098 47.6016 82.6961 47.6016 86.0098V101.438C47.6016 104.752 50.2938 107.438 53.6149 107.438H183.712C187.033 107.438 189.726 104.752 189.726 101.438V86.0098C189.726 82.6961 187.033 80.0098 183.712 80.0098H53.6148Z" fill="#F6F6F6"/>
<rect x="75.1289" y="86.8613" width="92.8392" height="6.85715" rx="3.42857" fill="#DCDCDC"/>
<rect x="75.1289" y="96.0078" width="67.0505" height="4.57143" rx="2.28572" fill="#EEEEEE"/>
<ellipse cx="60.2492" cy="93.7115" rx="6.3039" ry="6.28571" fill="#DCDCDC"/>
<path fill-rule="evenodd" clip-rule="evenodd" d="M60.2224 101.147C64.3369 101.147 67.6724 97.8214 67.6724 93.7187C67.6724 89.6161 64.3369 86.2902 60.2224 86.2902C56.1078 86.2902 52.7723 89.6161 52.7723 93.7187C52.7723 97.8214 56.1078 101.147 60.2224 101.147ZM60.2224 101.719C64.6534 101.719 68.2455 98.137 68.2455 93.7187C68.2455 89.3005 64.6534 85.7188 60.2224 85.7188C55.7913 85.7188 52.1992 89.3005 52.1992 93.7187C52.1992 98.137 55.7913 101.719 60.2224 101.719Z" fill="#999999"/>
<path d="M67.082 17.4434C67.082 14.1297 69.7743 11.4434 73.0953 11.4434H203.193C206.514 11.4434 209.206 14.1297 209.206 17.4434V32.8719C209.206 36.1857 206.514 38.8719 203.193 38.8719H73.0953C69.7743 38.8719 67.082 36.1857 67.082 32.8719V17.4434Z" fill="white"/>
<path fill-rule="evenodd" clip-rule="evenodd" d="M203.193 12.1934H73.0953C70.1894 12.1934 67.8337 14.5439 67.8337 17.4434V32.8719C67.8337 35.7714 70.1894 38.1219 73.0953 38.1219H203.193C206.099 38.1219 208.455 35.7714 208.455 32.8719V17.4434C208.455 14.5439 206.099 12.1934 203.193 12.1934ZM73.0953 11.4434C69.7743 11.4434 67.082 14.1297 67.082 17.4434V32.8719C67.082 36.1857 69.7743 38.8719 73.0953 38.8719H203.193C206.514 38.8719 209.206 36.1857 209.206 32.8719V17.4434C209.206 14.1297 206.514 11.4434 203.193 11.4434H73.0953Z" fill="#F6F6F6"/>
<rect x="94.6094" y="18.2949" width="92.8392" height="6.85715" rx="3.42857" fill="#DCDCDC"/>
<rect x="94.6094" y="27.4414" width="67.0505" height="4.57143" rx="2.28572" fill="#EEEEEE"/>
<ellipse cx="79.7141" cy="25.1588" rx="6.3039" ry="6.28571" fill="#DCDCDC"/>
<path fill-rule="evenodd" clip-rule="evenodd" d="M79.6872 32.5946C83.8018 32.5946 87.1373 29.2687 87.1373 25.166C87.1373 21.0633 83.8018 17.7374 79.6872 17.7374C75.5726 17.7374 72.2371 21.0633 72.2371 25.166C72.2371 29.2687 75.5726 32.5946 79.6872 32.5946ZM79.6872 33.166C84.1183 33.166 87.7103 29.5843 87.7103 25.166C87.7103 20.7477 84.1183 17.166 79.6872 17.166C75.2561 17.166 71.6641 20.7477 71.6641 25.166C71.6641 29.5843 75.2561 33.166 79.6872 33.166Z" fill="#999999"/>
</g>
<mask id="mask1_2291_59967" style="mask-type:alpha" maskUnits="userSpaceOnUse" x="0" y="0" width="141" height="120">
<path d="M0 0H80.978C114.115 0 140.978 26.8629 140.978 60V60C140.978 93.1371 114.115 120 80.978 120H0V0Z" fill="#FAFAFA"/>
</mask>
<g mask="url(#mask1_2291_59967)">
<path d="M4 52.2871C4 48.9734 6.69224 46.2871 10.0133 46.2871H140.111C143.432 46.2871 146.124 48.9734 146.124 52.2871V67.7157C146.124 71.0294 143.432 73.7157 140.111 73.7157H10.0133C6.69225 73.7157 4 71.0294 4 67.7157V52.2871Z" fill="white"/>
<path fill-rule="evenodd" clip-rule="evenodd" d="M140.111 47.0371H10.0133C7.10737 47.0371 4.75166 49.3876 4.75166 52.2871V67.7157C4.75166 70.6152 7.10737 72.9657 10.0133 72.9657H140.111C143.017 72.9657 145.372 70.6152 145.372 67.7157V52.2871C145.372 49.3876 143.017 47.0371 140.111 47.0371ZM10.0133 46.2871C6.69224 46.2871 4 48.9734 4 52.2871V67.7157C4 71.0294 6.69225 73.7157 10.0133 73.7157H140.111C143.432 73.7157 146.124 71.0294 146.124 67.7157V52.2871C146.124 48.9734 143.432 46.2871 140.111 46.2871H10.0133Z" fill="#F6F6F6"/>
<rect x="31.5273" y="53.1387" width="92.8392" height="6.85715" rx="3.42857" fill="#DCDCDC"/>
<rect x="31.5273" y="62.2852" width="67.0505" height="4.57143" rx="2.28572" fill="#EEEEEE"/>
<ellipse cx="16.6476" cy="59.983" rx="6.3039" ry="6.28571" fill="#DCDCDC"/>
<path fill-rule="evenodd" clip-rule="evenodd" d="M16.6208 67.4188C20.7353 67.4188 24.0709 64.0929 24.0709 59.9902C24.0709 55.8875 20.7353 52.5617 16.6208 52.5617C12.5062 52.5617 9.17074 55.8875 9.17074 59.9902C9.17074 64.0929 12.5062 67.4188 16.6208 67.4188ZM16.6208 67.9902C21.0519 67.9902 24.6439 64.4085 24.6439 59.9902C24.6439 55.572 21.0519 51.9902 16.6208 51.9902C12.1897 51.9902 8.59766 55.572 8.59766 59.9902C8.59766 64.4085 12.1897 67.9902 16.6208 67.9902Z" fill="#999999"/>
</g>
</svg>
